# xmcd
#
# Track frame offsets: 
#        150
#        13563
#        26710
#        41448
#        56035
#        69073
#        82548
#        95723
#        108645
#        121475
#        134873
#        149148
#        162185
#        175448
#        189098
#        201860
#        215543
#        228605
#        241823
#        255803
#
# Disc length: 3582 seconds
#
# Revision: 3
# Processed by: cddbd v1.5.2PL0 Copyright (c) Steve Scherf et al.
# Submitted via: ExactAudioCopy v1.1
#
DISCID=180dfc14
DTITLE=Blind Willie McTell - The Definitive Blind Willie McTell (Roots
DTITLE=N' Blues) - Disc 2
DYEAR=1994
DGENRE=Blues
TTITLE0=Lord Have Mercy If You Please (mono)
TTITLE1=Don't You See How This World Made A Change (mono)
TTITLE2=Savannah Mama (mono)
TTITLE3=Broke Down Engine (mono)
TTITLE4=Broke Down Engine No. 2 (mono)
TTITLE5=My Baby's Gone (mono)
TTITLE6=Love Makin' Mama (take 1) (mono)
TTITLE7=Love Makin' Mama (take 2) (mono)
TTITLE8=Death Room Blues (take 1) (mono)
TTITLE9=Death Room Blues (take 2) (mono)
TTITLE10=Death Cell Blues (mono)
TTITLE11=Lord Send Me An Angel (take 1) (mono)
TTITLE12=Lord Send Me An Angel (take 2) (mono)
TTITLE13=B and O Blues No. 2 (take 1) (mono)
TTITLE14=B and O Blues No. 2 (take 2) (mono)
TTITLE15=Weary Hearted Blues (mono)
TTITLE16=Bell Street Lightnin' (mono)
TTITLE17=Southern Can Mama (mono)
TTITLE18=Runnin' Me Crazy (mono)
TTITLE19=East St. Louis Blues (Fare You Well) (mono)
EXTD=Columbia/Legacy Series\nCD 53234\n\n[Submitted 5/29/97 - J. Rockw
EXTD=all]\n[Jmccoy@efn.org]
EXTT0=
EXTT1=
EXTT2=
EXTT3=
EXTT4=
EXTT5=
EXTT6=
EXTT7=
EXTT8=
EXTT9=
EXTT10=
EXTT11=
EXTT12=
EXTT13=
EXTT14=
EXTT15=
EXTT16=
EXTT17=
EXTT18=
EXTT19=
PLAYORDER=
